<svg id="Layer_1" data-name="Layer 1" xmlns="http://www.w3.org/2000/svg" width="600" height="300" viewBox="0 0 600 300">
  <title>logo_travix</title>
  <rect width="600" height="300" fill="#fff" opacity="0"/>
  <g>
    <path d="M454,139.523a252.346,252.346,0,0,1,24.642-31.557c23.331-25.125,51-44.226,81.929-58.759a46.542,46.542,0,0,1,8.646-2.651c1.271-.316,3-.445,3.507,1.209.453,1.489-1.129,1.936-2.117,2.551-23.636,14.715-44.318,32.878-62.8,53.61a337.679,337.679,0,0,0-37.441,51.381c-1.615,2.7-.669,4.054.892,5.832q14.419,16.414,28.8,32.858c3.184,3.636,5.552,7.695,5,12.7-.647,5.833-3.274,10.358-9.377,12.1-5.985,1.7-11.5,1.188-15.717-3.865-7.48-8.97-14.808-18.067-22.209-27.1-.666-.813-1.4-1.574-2.487-2.8a197.531,197.531,0,0,0-10.906,26.017c-3.591,10.434-5.79,21.243-8.407,31.942-2.241,9.159-7.558,14.213-15.014,14.771-10.58.792-17.8-9.182-14.258-19.737,8-23.819,17.332-47.082,29.911-68.9,2.343-4.063,1.73-6.585-1.213-9.762-7.527-8.125-14.855-16.438-22.127-24.794-6.562-7.541-7.095-14.292-1.887-20.361,6.673-7.776,16.195-7.756,22.674.215C440.639,122.536,447.068,130.791,454,139.523Z" fill="#028bd6"/>
    <path d="M253.393,199.474c-2.722,2.093-5.187,4.751-8.354,6.547-11.884,6.738-28.482,4.453-40.163-5.624-21.958-18.942-20.237-61.729,3-79.066,12.885-9.614,32.856-11.312,45.643,2.687,1.692-3.66,3.7-6.96,7.686-8.417a13.813,13.813,0,0,1,8.049-.515c5.331,1.259,8.069,4.895,8.13,11.549.161,17.591.123,35.184.143,52.776.007,5.763.027,11.528-.1,17.288-.143,6.65-2.927,10.727-7.847,11.8-7.377,1.616-11.9-.674-15.005-7.6C254.343,200.378,254.393,199.671,253.393,199.474Zm-39.027-36.389a26.553,26.553,0,0,0,3.872,14.4c3.537,5.991,8.593,9.5,15.939,9.309,7.006-.178,11.783-3.785,14.785-9.592,5.626-10.883,5.318-21.907-1.027-32.4-5.965-9.86-18.867-10.979-26.77-2.517C216.041,147.774,214.383,154.577,214.366,163.085Z" fill="#018bd6"/>
    <path d="M88.605,152.2c0-14.1-.124-28.206.087-42.3.052-3.513-1.036-4.406-4.372-4.226-5,.27-10.022.162-15.03.03-6.6-.175-10.71-4.625-10.83-11.484-.118-6.794,4.331-12.148,10.746-12.187q32.573-.2,65.148,0c6.411.036,10.885,5.37,10.766,12.178s-4.326,11.339-10.865,11.5c-5.009.121-10.04.3-15.028-.041-3.768-.258-4.436,1.184-4.42,4.6.13,27.142.082,54.285.053,81.427a38.65,38.65,0,0,1-.444,6.327c-1.182,7.051-5.389,10.623-12.376,10.693-7.332.073-11.69-3.367-12.978-10.607-1.068-6.006-.359-12.1-.429-18.154C88.525,170.7,88.605,161.452,88.605,152.2Z" fill="#028bd6"/>
    <path d="M326.138,172.582c5.192-16.1,10.155-31.376,15.031-46.677,1.779-5.584,4.088-10.58,10.9-11.1,10.668-.817,16.708,7.993,12.638,18.721-6.369,16.784-12.963,33.484-19.47,50.216-2.3,5.911-4.557,11.839-6.95,17.712-2.241,5.5-6.6,7.311-12.342,7.353-5.852.043-10.069-2.119-12.187-7.548-8.94-22.919-17.968-45.807-26.55-68.86-3.725-10.006,2.521-18.242,12.643-17.6,6.064.387,8.908,4.371,10.6,9.672q6.68,20.9,13.486,41.764C324.539,168.086,325.211,169.913,326.138,172.582Z" fill="#028bd6"/>
    <path d="M160.514,124.784c4.953-6.443,10.187-10.433,17.82-10.022a11.891,11.891,0,0,1,11.392,9.861c1.2,6.486-.58,9.907-6.8,12.578-4.721,2.025-9.54,3.8-14.045,6.333-5.659,3.176-8.616,7.7-8.524,14.361.164,11.828.036,23.66.036,35.49,0,3.2-.275,6.356-1.86,9.232-2.593,4.7-7.149,6.765-13.143,5.988-4.427-.573-8.425-4.435-9.412-9.258a29.8,29.8,0,0,1-.725-5.844c-.05-21.537-.09-43.074-.007-64.611.041-10.766,8.39-16.635,18.434-13.374C157.823,116.864,159.706,119.749,160.514,124.784Z" fill="#028bd6"/>
    <path d="M398.668,161.983c0,11.07.094,22.14-.031,33.208-.09,8.012-4.805,13.271-11.736,13.5-7.434.245-12.476-4.119-12.881-11.612-.319-5.9-.2-11.821-.194-17.733.011-17.437-.135-34.878.174-52.31.168-9.426,8.882-14.958,17.169-11.232,5.475,2.462,7.455,7.272,7.483,12.972C398.705,139.845,398.667,150.914,398.668,161.983Z" fill="#018bd6"/>
    <path d="M372.223,91.205a14.209,14.209,0,0,1,14.014-13.754,14.371,14.371,0,0,1,14.009,13.86,14.579,14.579,0,0,1-14.089,14.353C378.792,105.69,372.207,98.858,372.223,91.205Z" fill="#028bd6"/>
  </g>
</svg>
